<svg xmlns="http://www.w3.org/2000/svg" width="1200" height="900" viewBox="0 0 1200 900" role="img" aria-label="Exemplo de resultado do exercício do Encontro 5">
  <rect width="1200" height="900" fill="#f8fafc"/>
  <text x="80" y="54" font-family="Arial, sans-serif" font-size="22" font-weight="700" fill="#334155">Resultado esperado do exercício - Encontro 5 (versão atualizada)</text>

  <rect x="80" y="88" width="1040" height="760" rx="16" fill="#ffffff" stroke="#cbd5e1"/>
  <rect x="80" y="88" width="1040" height="48" rx="16" fill="#e2e8f0"/>
  <circle cx="112" cy="112" r="7" fill="#ef4444"/>
  <circle cx="136" cy="112" r="7" fill="#f59e0b"/>
  <circle cx="160" cy="112" r="7" fill="#22c55e"/>
  <text x="190" y="118" font-family="Arial, sans-serif" font-size="15" fill="#475569">index.html</text>

  <g font-family="Arial, sans-serif">
    <text x="126" y="186" font-size="42" font-weight="700" fill="#0f172a">Guia de Estudos - Padrões Web</text>
    <text x="126" y="225" font-size="21" fill="#334155">Esta página organiza os conteúdos iniciais de HTML para estudo autônomo.</text>

    <text x="126" y="286" font-size="31" font-weight="700" fill="#0f172a">Objetivos da semana</text>
    <text x="145" y="322" font-size="22" fill="#1f2937">- Compreender hierarquia de títulos.</text>
    <text x="145" y="352" font-size="22" fill="#1f2937">- Escrever parágrafos claros.</text>
    <text x="145" y="382" font-size="22" fill="#1f2937">- Usar listas e links corretamente.</text>

    <text x="126" y="448" font-size="31" font-weight="700" fill="#0f172a">Plano de estudo</text>
    <text x="145" y="484" font-size="22" fill="#1f2937">1. Ler o material teórico.</text>
    <text x="145" y="514" font-size="22" fill="#1f2937">2. Implementar o exemplo no editor.</text>
    <text x="145" y="544" font-size="22" fill="#1f2937">3. Testar no navegador.</text>
    <text x="145" y="574" font-size="22" fill="#1f2937">4. Corrigir inconsistências no DevTools.</text>

    <text x="126" y="642" font-size="31" font-weight="700" fill="#0f172a">Referências rápidas</text>
    <text x="126" y="678" font-size="21" fill="#334155">Consulte a documentação de HTML da MDN</text>
    <text x="126" y="708" font-size="21" fill="#334155">para revisar os elementos usados nesta prática.</text>
    <text x="126" y="752" font-size="22" fill="#1d4ed8">documentação de HTML da MDN</text>
    <line x1="126" y1="757" x2="431" y2="757" stroke="#1d4ed8" stroke-width="1.5"/>

    <text x="126" y="796" font-size="22" fill="#1d4ed8">Ir para a página de contato</text>
    <line x1="126" y1="801" x2="391" y2="801" stroke="#1d4ed8" stroke-width="1.5"/>
  </g>
</svg>
